<svg width="12" height="9" viewBox="0 0 12 9" fill="none" xmlns="http://www.w3.org/2000/svg">
<path d="M4.00003 6.95575L10.073 0.872997C10.211 0.734663 10.3865 0.665497 10.5995 0.665497C10.8127 0.665497 10.9885 0.734498 11.127 0.872498C11.2654 1.0105 11.3345 1.18608 11.3345 1.39925C11.3345 1.61258 11.2654 1.7885 11.127 1.927L4.63278 8.4115C4.45194 8.59233 4.24103 8.68275 4.00003 8.68275C3.75903 8.68275 3.54811 8.59233 3.36728 8.4115L0.873028 5.927C0.734694 5.789 0.665527 5.6135 0.665527 5.4005C0.665527 5.18733 0.734527 5.0115 0.872527 4.873C1.01053 4.73466 1.18611 4.6655 1.39928 4.6655C1.61261 4.6655 1.78853 4.73466 1.92703 4.873L4.00003 6.95575Z" fill="#FFFFFF"/>
</svg>
